<mxfile host="app.diagrams.net" modified="2024-09-10T13:14:05.247Z" agent="Mozilla/5.0 (Windows NT 10.0; Win64; x64) AppleWebKit/537.36 (KHTML, like Gecko) Chrome/128.0.0.0 Safari/537.36" etag="yxLqp-VR6Z7j1Q66kGim" version="24.4.4" type="device">
  <diagram name="Page-1" id="_-17pELcl8i6I_zQeYNf">
    <mxGraphModel dx="1687" dy="868" grid="0" gridSize="10" guides="1" tooltips="1" connect="1" arrows="1" fold="1" page="1" pageScale="1" pageWidth="850" pageHeight="1100" math="0" shadow="0">
      <root>
        <mxCell id="0" />
        <mxCell id="1" parent="0" />
        <mxCell id="4gOoy3zlHD4HIN7Pc63L-2" value="User DB" style="shape=cylinder3;whiteSpace=wrap;html=1;boundedLbl=1;backgroundOutline=1;size=15;" vertex="1" parent="1">
          <mxGeometry x="589" y="195" width="90" height="70" as="geometry" />
        </mxCell>
        <mxCell id="4gOoy3zlHD4HIN7Pc63L-5" style="edgeStyle=orthogonalEdgeStyle;rounded=0;orthogonalLoop=1;jettySize=auto;html=1;exitX=0.5;exitY=1;exitDx=0;exitDy=0;" edge="1" parent="1" source="4gOoy3zlHD4HIN7Pc63L-3" target="4gOoy3zlHD4HIN7Pc63L-4">
          <mxGeometry relative="1" as="geometry" />
        </mxCell>
        <mxCell id="4gOoy3zlHD4HIN7Pc63L-3" value="User" style="rounded=0;whiteSpace=wrap;html=1;" vertex="1" parent="1">
          <mxGeometry x="340" y="90" width="120" height="60" as="geometry" />
        </mxCell>
        <mxCell id="4gOoy3zlHD4HIN7Pc63L-8" style="edgeStyle=orthogonalEdgeStyle;rounded=0;orthogonalLoop=1;jettySize=auto;html=1;exitX=0.5;exitY=1;exitDx=0;exitDy=0;" edge="1" parent="1" source="4gOoy3zlHD4HIN7Pc63L-4" target="4gOoy3zlHD4HIN7Pc63L-7">
          <mxGeometry relative="1" as="geometry" />
        </mxCell>
        <mxCell id="4gOoy3zlHD4HIN7Pc63L-4" value="Register Event" style="rounded=0;whiteSpace=wrap;html=1;" vertex="1" parent="1">
          <mxGeometry x="340" y="200" width="120" height="60" as="geometry" />
        </mxCell>
        <mxCell id="4gOoy3zlHD4HIN7Pc63L-6" style="edgeStyle=orthogonalEdgeStyle;rounded=0;orthogonalLoop=1;jettySize=auto;html=1;exitX=1;exitY=0.5;exitDx=0;exitDy=0;entryX=0;entryY=0.5;entryDx=0;entryDy=0;entryPerimeter=0;" edge="1" parent="1" source="4gOoy3zlHD4HIN7Pc63L-4" target="4gOoy3zlHD4HIN7Pc63L-2">
          <mxGeometry relative="1" as="geometry" />
        </mxCell>
        <mxCell id="4gOoy3zlHD4HIN7Pc63L-7" value="Matching Service" style="rounded=0;whiteSpace=wrap;html=1;" vertex="1" parent="1">
          <mxGeometry x="340" y="319" width="120" height="60" as="geometry" />
        </mxCell>
        <mxCell id="4gOoy3zlHD4HIN7Pc63L-9" value="" style="endArrow=none;html=1;rounded=0;" edge="1" parent="1">
          <mxGeometry width="50" height="50" relative="1" as="geometry">
            <mxPoint x="400" y="422" as="sourcePoint" />
            <mxPoint x="399.5" y="377" as="targetPoint" />
          </mxGeometry>
        </mxCell>
        <mxCell id="4gOoy3zlHD4HIN7Pc63L-11" value="" style="curved=1;endArrow=classic;html=1;rounded=0;" edge="1" parent="1">
          <mxGeometry width="50" height="50" relative="1" as="geometry">
            <mxPoint x="400" y="422" as="sourcePoint" />
            <mxPoint x="293" y="518" as="targetPoint" />
            <Array as="points">
              <mxPoint x="362" y="434" />
            </Array>
          </mxGeometry>
        </mxCell>
        <mxCell id="4gOoy3zlHD4HIN7Pc63L-12" value="" style="curved=1;endArrow=classic;html=1;rounded=0;entryX=0.5;entryY=0;entryDx=0;entryDy=0;" edge="1" parent="1" target="4gOoy3zlHD4HIN7Pc63L-14">
          <mxGeometry width="50" height="50" relative="1" as="geometry">
            <mxPoint x="399" y="422" as="sourcePoint" />
            <mxPoint x="505" y="515" as="targetPoint" />
            <Array as="points">
              <mxPoint x="472" y="464" />
            </Array>
          </mxGeometry>
        </mxCell>
        <mxCell id="4gOoy3zlHD4HIN7Pc63L-19" style="edgeStyle=orthogonalEdgeStyle;rounded=0;orthogonalLoop=1;jettySize=auto;html=1;exitX=0.5;exitY=1;exitDx=0;exitDy=0;entryX=0.5;entryY=0;entryDx=0;entryDy=0;" edge="1" parent="1" source="4gOoy3zlHD4HIN7Pc63L-13" target="4gOoy3zlHD4HIN7Pc63L-18">
          <mxGeometry relative="1" as="geometry" />
        </mxCell>
        <mxCell id="4gOoy3zlHD4HIN7Pc63L-25" value="&lt;p style=&quot;line-height: 120%;&quot;&gt;&lt;span style=&quot;background-color: rgb(0, 0, 0);&quot;&gt;&lt;font color=&quot;#ffffff&quot;&gt;WebSocket&lt;/font&gt;&lt;/span&gt;&lt;/p&gt;" style="edgeLabel;html=1;align=center;verticalAlign=middle;resizable=0;points=[];" vertex="1" connectable="0" parent="4gOoy3zlHD4HIN7Pc63L-19">
          <mxGeometry x="-0.0819" y="-1" relative="1" as="geometry">
            <mxPoint as="offset" />
          </mxGeometry>
        </mxCell>
        <mxCell id="4gOoy3zlHD4HIN7Pc63L-13" value="yes" style="rhombus;whiteSpace=wrap;html=1;" vertex="1" parent="1">
          <mxGeometry x="253" y="518" width="80" height="80" as="geometry" />
        </mxCell>
        <mxCell id="4gOoy3zlHD4HIN7Pc63L-15" style="edgeStyle=orthogonalEdgeStyle;rounded=0;orthogonalLoop=1;jettySize=auto;html=1;exitX=1;exitY=0;exitDx=0;exitDy=0;entryX=1;entryY=0.5;entryDx=0;entryDy=0;curved=1;" edge="1" parent="1" source="4gOoy3zlHD4HIN7Pc63L-14" target="4gOoy3zlHD4HIN7Pc63L-7">
          <mxGeometry relative="1" as="geometry">
            <Array as="points">
              <mxPoint x="625" y="538" />
              <mxPoint x="625" y="349" />
            </Array>
          </mxGeometry>
        </mxCell>
        <mxCell id="4gOoy3zlHD4HIN7Pc63L-14" value="no" style="rhombus;whiteSpace=wrap;html=1;" vertex="1" parent="1">
          <mxGeometry x="466" y="518" width="80" height="80" as="geometry" />
        </mxCell>
        <mxCell id="4gOoy3zlHD4HIN7Pc63L-21" style="edgeStyle=orthogonalEdgeStyle;rounded=0;orthogonalLoop=1;jettySize=auto;html=1;exitX=0;exitY=0.5;exitDx=0;exitDy=0;" edge="1" parent="1" source="4gOoy3zlHD4HIN7Pc63L-18" target="4gOoy3zlHD4HIN7Pc63L-20">
          <mxGeometry relative="1" as="geometry" />
        </mxCell>
        <mxCell id="4gOoy3zlHD4HIN7Pc63L-23" value="" style="edgeStyle=orthogonalEdgeStyle;rounded=0;orthogonalLoop=1;jettySize=auto;html=1;" edge="1" parent="1" source="4gOoy3zlHD4HIN7Pc63L-18" target="4gOoy3zlHD4HIN7Pc63L-22">
          <mxGeometry relative="1" as="geometry" />
        </mxCell>
        <mxCell id="4gOoy3zlHD4HIN7Pc63L-18" value="Open Chat" style="rounded=0;whiteSpace=wrap;html=1;" vertex="1" parent="1">
          <mxGeometry x="233" y="649" width="120" height="60" as="geometry" />
        </mxCell>
        <mxCell id="4gOoy3zlHD4HIN7Pc63L-20" value="Chat DB" style="shape=cylinder3;whiteSpace=wrap;html=1;boundedLbl=1;backgroundOutline=1;size=15;" vertex="1" parent="1">
          <mxGeometry x="65" y="639" width="60" height="80" as="geometry" />
        </mxCell>
        <mxCell id="4gOoy3zlHD4HIN7Pc63L-24" style="edgeStyle=orthogonalEdgeStyle;rounded=0;orthogonalLoop=1;jettySize=auto;html=1;exitX=0.5;exitY=1;exitDx=0;exitDy=0;entryX=0;entryY=0.5;entryDx=0;entryDy=0;curved=1;" edge="1" parent="1" source="4gOoy3zlHD4HIN7Pc63L-22" target="4gOoy3zlHD4HIN7Pc63L-7">
          <mxGeometry relative="1" as="geometry">
            <Array as="points">
              <mxPoint x="293" y="869" />
              <mxPoint x="24" y="869" />
              <mxPoint x="24" y="349" />
            </Array>
          </mxGeometry>
        </mxCell>
        <mxCell id="4gOoy3zlHD4HIN7Pc63L-22" value="Close Chat" style="rounded=0;whiteSpace=wrap;html=1;" vertex="1" parent="1">
          <mxGeometry x="233" y="789" width="120" height="60" as="geometry" />
        </mxCell>
        <mxCell id="4gOoy3zlHD4HIN7Pc63L-26" value="Redis Cache" style="shape=cylinder3;whiteSpace=wrap;html=1;boundedLbl=1;backgroundOutline=1;size=15;" vertex="1" parent="1">
          <mxGeometry x="137" y="194.5" width="105" height="70.5" as="geometry" />
        </mxCell>
        <mxCell id="4gOoy3zlHD4HIN7Pc63L-27" style="edgeStyle=orthogonalEdgeStyle;rounded=0;orthogonalLoop=1;jettySize=auto;html=1;exitX=0;exitY=0.5;exitDx=0;exitDy=0;entryX=1;entryY=0.5;entryDx=0;entryDy=0;entryPerimeter=0;" edge="1" parent="1" source="4gOoy3zlHD4HIN7Pc63L-4" target="4gOoy3zlHD4HIN7Pc63L-26">
          <mxGeometry relative="1" as="geometry" />
        </mxCell>
      </root>
    </mxGraphModel>
  </diagram>
</mxfile>
